# xmcd CD database file
# Copyright (C) 1996 Ti Kan
#
# Track frame offsets:
# 	150
# 	19877
# 	50305
# 	65582
# 	83382
# 	97385
# 	118060
# 	138015
# 	158810
# 	171680
# 	186940
#
# Disc length: 2711 seconds
#
# Revision: 1
# Processed by: cddbd v1.4b41PL1 Copyright (c) Steve Scherf et al.
# Submitted via: DiscPlay 3.4.1
#
DISCID=960a950b
DTITLE=Pops Staples - Father Father
DYEAR=1900
DGENRE=
TTITLE0=Father Father
TTITLE1=Why Am I Treated So Bad
TTITLE2=Getting Too Big For Your Britches
TTITLE3=Jesus Is Going To Mke Up (My Dying Bed)
TTITLE4=Downward Road
TTITLE5=People Get Ready
TTITLE6=Hope in a Hopeless World
TTITLE7=Gotta Serve Somebody
TTITLE8=Waiting For My Child
TTITLE9=Simple Men
TTITLE10=Glory Glory
EXTD=
EXTT0=
EXTT1=
EXTT2=
EXTT3=
EXTT4=
EXTT5=
EXTT6=
EXTT7=
EXTT8=
EXTT9=
EXTT10=
PLAYORDER=
